<?xml version="1.0" encoding="utf-8" ?>
<svg baseProfile="full" height="100%" version="1.1" width="100%" xmlns="http://www.w3.org/2000/svg" xmlns:ev="http://www.w3.org/2001/xml-events" xmlns:xlink="http://www.w3.org/1999/xlink"><defs /><circle cx="30.76923076923077" cy="45.294322214259914" fill="#4c7ce3" r="11" /><circle cx="61.53846153846154" cy="48.63037894565866" fill="#4b6be2" r="11" /><circle cx="92.3076923076923" cy="49.9893198679482" fill="#4248d5" r="11" /><circle cx="123.07692307692308" cy="49.059827992845456" fill="#3f52cd" r="11" /><circle cx="153.84615384615384" cy="46.05483870734508" fill="#4281da" r="11" /><circle cx="184.6153846153846" cy="41.66275884270852" fill="#447ddb" r="11" /><circle cx="215.3846153846154" cy="36.88976096562376" fill="#426ccf" r="11" /><circle cx="246.15384615384616" cy="32.82928136887095" fill="#4784e0" r="11" /><circle cx="276.9230769230769" cy="30.41152699398234" fill="#3a41cb" r="11" /><circle cx="307.6923076923077" cy="30.190376231146075" fill="#3d7adb" r="11" /><circle cx="338.46153846153845" cy="32.21649205497234" fill="#3a81e3" r="11" /><circle cx="369.2307692307692" cy="36.02571574756519" fill="#3682d8" r="11" /><circle cx="36.36363636363637" cy="86.47691060904698" fill="#309e22" r="11" /><circle cx="72.72727272727273" cy="89.56788292305464" fill="#38a422" r="11" /><circle cx="109.0909090909091" cy="89.6211200124227" fill="#55981f" r="11" /><circle cx="145.45454545454547" cy="86.6197194774321" fill="#35a12b" r="11" /><circle cx="181.81818181818184" cy="81.51660478105958" fill="#239323" r="11" /><circle cx="218.1818181818182" cy="75.93197878251796" fill="#4c9f20" r="11" /><circle cx="254.54545454545456" cy="71.63892077726248" fill="#569d20" r="11" /><circle cx="290.90909090909093" cy="70.0004463486634" fill="#4ea528" r="11" /><circle cx="327.2727272727273" cy="71.5367595508938" fill="#409e2b" r="11" /><circle cx="363.6363636363637" cy="75.76009179731592" fill="#309b22" r="11" /><circle cx="33.333333333333336" cy="129.24480576968483" fill="#b965be" r="11" /><circle cx="66.66666666666667" cy="129.91238238647338" fill="#9755b2" r="11" /><circle cx="100.0" cy="127.92394414773791" fill="#a15ba9" r="11" /><circle cx="133.33333333333334" cy="123.81229147374674" fill="#8550af" r="11" /><circle cx="166.66666666666669" cy="118.67913837805308" fill="#ad56b6" r="11" /><circle cx="200.0" cy="113.89990908727336" fill="#9351a6" r="11" /><circle cx="233.33333333333334" cy="110.75519423031517" fill="#a25bbc" r="11" /><circle cx="266.6666666666667" cy="110.08761761352662" fill="#9550b1" r="11" /><circle cx="300.0" cy="112.07605585226209" fill="#934fae" r="11" /><circle cx="333.33333333333337" cy="116.18770852625326" fill="#9065be" r="11" /><circle cx="366.6666666666667" cy="121.32086162194692" fill="#8f52af" r="11" /><circle cx="30.76923076923077" cy="169.66797760975518" fill="#d2602e" r="11" /><circle cx="61.53846153846154" cy="169.74813533410685" fill="#c93139" r="11" /><circle cx="92.3076923076923" cy="167.5951127311806" fill="#c8392b" r="11" /><circle cx="123.07692307692308" cy="163.70214133257164" fill="#d1643a" r="11" /><circle cx="153.84615384615384" cy="158.96105397031016" fill="#d14b39" r="11" /><circle cx="184.6153846153846" cy="154.45797662279364" fill="#c5303c" r="11" /><circle cx="215.3846153846154" cy="151.22451004237323" fill="#d7583b" r="11" /><circle cx="246.15384615384616" cy="150.00140245512662" fill="#bf4239" r="11" /><circle cx="276.9230769230769" cy="151.06885306924772" fill="#c6362e" r="11" /><circle cx="307.6923076923077" cy="154.18232181321585" fill="#c83b3c" r="11" /><circle cx="338.46153846153845" cy="158.62855051915372" fill="#c25f2a" r="11" /><circle cx="369.2307692307692" cy="163.38896177339555" fill="#d72d41" r="11" /></svg>