<svg xmlns="http://www.w3.org/2000/svg" viewBox="0 0 400 200">
  <g id="lines">
    <circle cx="30.76923076923077" cy="45.294322214259914" fill="#444ddd" r="11" />
    <circle cx="61.53846153846154" cy="48.63037894565866" fill="#4065da" r="11" />
    <circle cx="92.3076923076923" cy="49.9893198679482" fill="#4779db" r="11" />
    <circle cx="123.07692307692308" cy="49.059827992845456" fill="#3a44d1" r="11" />
    <circle cx="153.84615384615384" cy="46.05483870734508" fill="#4079d6" r="11" />
    <circle cx="184.6153846153846" cy="41.66275884270852" fill="#3f5cd1" r="11" />
    <circle cx="215.3846153846154" cy="36.88976096562376" fill="#3f76db" r="11" />
    <circle cx="246.15384615384616" cy="32.82928136887095" fill="#4451de" r="11" />
    <circle cx="276.9230769230769" cy="30.41152699398234" fill="#3b56d9" r="11" />
    <circle cx="307.6923076923077" cy="30.190376231146075" fill="#4068d1" r="11" />
    <circle cx="338.46153846153845" cy="32.21649205497234" fill="#3b65dc" r="11" />
    <circle cx="369.2307692307692" cy="36.02571574756519" fill="#467dd6" r="11" />
    <circle cx="36.36363636363637" cy="86.47691060904698" fill="#439526" r="11" />
    <circle cx="72.72727272727273" cy="89.56788292305464" fill="#4c9a29" r="11" />
    <circle cx="109.0909090909091" cy="89.6211200124227" fill="#479328" r="11" />
    <circle cx="145.45454545454547" cy="86.6197194774321" fill="#269627" r="11" />
    <circle cx="181.81818181818184" cy="81.51660478105958" fill="#2d9a28" r="11" />
    <circle cx="218.1818181818182" cy="75.93197878251796" fill="#329627" r="11" />
    <circle cx="254.54545454545456" cy="71.63892077726248" fill="#429326" r="11" />
    <circle cx="290.90909090909093" cy="70.0004463486634" fill="#339f26" r="11" />
    <circle cx="327.2727272727273" cy="71.5367595508938" fill="#369b2b" r="11" />
    <circle cx="363.6363636363637" cy="75.76009179731592" fill="#2d9020" r="11" />
    <circle cx="33.333333333333336" cy="129.24480576968483" fill="#9455b0" r="11" />
    <circle cx="66.66666666666667" cy="129.91238238647338" fill="#8955ad" r="11" />
    <circle cx="100.0" cy="127.92394414773791" fill="#885aae" r="11" />
    <circle cx="133.33333333333334" cy="123.81229147374674" fill="#9857b6" r="11" />
    <circle cx="166.66666666666669" cy="118.67913837805308" fill="#8a5ab5" r="11" />
    <circle cx="200.0" cy="113.89990908727336" fill="#8659ac" r="11" />
    <circle cx="233.33333333333334" cy="110.75519423031517" fill="#8455b2" r="11" />
    <circle cx="266.6666666666667" cy="110.08761761352662" fill="#8e5fb9" r="11" />
    <circle cx="300.0" cy="112.07605585226209" fill="#9556ac" r="11" />
    <circle cx="333.33333333333337" cy="116.18770852625326" fill="#9f5aaf" r="11" />
    <circle cx="366.6666666666667" cy="121.32086162194692" fill="#a056b5" r="11" />
    <circle cx="30.76923076923077" cy="169.66797760975518" fill="#d23d35" r="11" />
    <circle cx="61.53846153846154" cy="169.74813533410685" fill="#d34130" r="11" />
    <circle cx="92.3076923076923" cy="167.5951127311806" fill="#d23647" r="11" />
    <circle cx="123.07692307692308" cy="163.70214133257164" fill="#d13d2f" r="11" />
    <circle cx="153.84615384615384" cy="158.96105397031016" fill="#cf3a43" r="11" />
    <circle cx="184.6153846153846" cy="154.45797662279364" fill="#d15636" r="11" />
    <circle cx="215.3846153846154" cy="151.22451004237323" fill="#cf393a" r="11" />
    <circle cx="246.15384615384616" cy="150.00140245512662" fill="#cc3838" r="11" />
    <circle cx="276.9230769230769" cy="151.06885306924772" fill="#ce4330" r="11" />
    <circle cx="307.6923076923077" cy="154.18232181321585" fill="#c44f36" r="11" />
    <circle cx="338.46153846153845" cy="158.62855051915372" fill="#cc3445" r="11" />
    <circle cx="369.2307692307692" cy="163.38896177339555" fill="#c93038" r="11" />
  </g>
</svg>