<?xml version="1.0" encoding="utf-8" ?>
<svg baseProfile="tiny" height="100%" version="1.2" width="100%" xmlns="http://www.w3.org/2000/svg" xmlns:ev="http://www.w3.org/2001/xml-events" xmlns:xlink="http://www.w3.org/1999/xlink"><defs /><circle cx="12.5" cy="17.4593" fill="#4144d7" r="3.75" /><circle cx="25.0" cy="18.5453" fill="#4352d0" r="3.75" /><circle cx="37.5" cy="18.6813" fill="#3787db" r="3.75" /><circle cx="50.0" cy="17.8309" fill="#3c3ad6" r="3.75" /><circle cx="62.5" cy="16.222" fill="#4044cc" r="3.75" /><circle cx="75.0" cy="14.2856" fill="#3c7bd4" r="3.75" /><circle cx="87.5" cy="12.5407" fill="#4958db" r="3.75" /><circle cx="100.0" cy="11.4547" fill="#3465d4" r="3.75" /><circle cx="112.5" cy="11.3187" fill="#4490d4" r="3.75" /><circle cx="125.0" cy="12.1691" fill="#3f70e0" r="3.75" /><circle cx="137.5" cy="13.778" fill="#4269d1" r="3.75" /><circle cx="11.5385" cy="32.1687" fill="#258e2d" r="3.75" /><circle cx="23.0769" cy="33.342" fill="#2b932e" r="3.75" /><circle cx="34.6154" cy="33.7497" fill="#31912b" r="3.75" /><circle cx="46.1538" cy="33.2984" fill="#2f9a24" r="3.75" /><circle cx="57.6923" cy="32.0914" fill="#469c23" r="3.75" /><circle cx="69.2308" cy="30.4054" fill="#3e9424" r="3.75" /><circle cx="80.7692" cy="28.6264" fill="#559025" r="3.75" /><circle cx="92.3077" cy="27.1622" fill="#559622" r="3.75" /><circle cx="103.8462" cy="26.348" fill="#229329" r="3.75" /><circle cx="115.3846" cy="26.3705" fill="#2b941f" r="3.75" /><circle cx="126.9231" cy="27.2244" fill="#3e9425" r="3.75" /><circle cx="138.4615" cy="28.7142" fill="#2aa42b" r="3.75" /><circle cx="10.7143" cy="48.3503" fill="#924eaa" r="3.75" /><circle cx="21.4286" cy="48.7495" fill="#9f4da9" r="3.75" /><circle cx="32.1429" cy="48.406" fill="#8b55b4" r="3.75" /><circle cx="42.8571" cy="47.388" fill="#9b56ba" r="3.75" /><circle cx="53.5714" cy="45.8969" fill="#a154a5" r="3.75" /><circle cx="64.2857" cy="44.2283" fill="#b460bf" r="3.75" /><circle cx="75.0" cy="42.7125" fill="#8556b5" r="3.75" /><circle cx="85.7143" cy="41.6497" fill="#ad56b7" r="3.75" /><circle cx="96.4286" cy="41.2505" fill="#a14ca6" r="3.75" /><circle cx="107.1429" cy="41.594" fill="#a05dac" r="3.75" /><circle cx="117.8571" cy="42.612" fill="#7e53b6" r="3.75" /><circle cx="128.5714" cy="44.1031" fill="#aa55b8" r="3.75" /><circle cx="139.2857" cy="45.7717" fill="#9257b6" r="3.75" /><circle cx="10.0" cy="63.6577" fill="#cd3a48" r="3.75" /><circle cx="20.0" cy="63.6778" fill="#c82c37" r="3.75" /><circle cx="30.0" cy="63.0619" fill="#cd3341" r="3.75" /><circle cx="40.0" cy="61.9166" fill="#c16736" r="3.75" /><circle cx="50.0" cy="60.4398" fill="#d23d5d" r="3.75" /><circle cx="60.0" cy="58.8871" fill="#cc3a58" r="3.75" /><circle cx="70.0" cy="57.5268" fill="#cb5432" r="3.75" /><circle cx="80.0" cy="56.5941" fill="#cd4830" r="3.75" /><circle cx="90.0" cy="56.2503" fill="#c13f28" r="3.75" /><circle cx="100.0" cy="56.5549" fill="#c86a3c" r="3.75" /><circle cx="110.0" cy="57.4552" fill="#d32d44" r="3.75" /><circle cx="120.0" cy="58.7955" fill="#ce2e47" r="3.75" /><circle cx="130.0" cy="60.344" fill="#cf6a34" r="3.75" /><circle cx="140.0" cy="61.8331" fill="#cb3b45" r="3.75" /></svg>