<?xml version="1.0" encoding="utf-8" ?>
<svg baseProfile="tiny" height="100%" version="1.2" width="100%" xmlns="http://www.w3.org/2000/svg" xmlns:ev="http://www.w3.org/2001/xml-events" xmlns:xlink="http://www.w3.org/1999/xlink"><defs /><circle cx="28.5714" cy="44.9983" fill="#3d54dd" r="10" /><circle cx="57.1429" cy="48.2613" fill="#3754cc" r="10" /><circle cx="85.7143" cy="49.888" fill="#4174ce" r="10" /><circle cx="114.2857" cy="49.5563" fill="#3e41e4" r="10" /><circle cx="142.8571" cy="47.3318" fill="#3873d4" r="10" /><circle cx="171.4286" cy="43.6552" fill="#4592e2" r="10" /><circle cx="200.0" cy="39.2546" fill="#3876e4" r="10" /><circle cx="228.5714" cy="35.0017" fill="#4895e1" r="10" /><circle cx="257.1429" cy="31.7387" fill="#4a48dd" r="10" /><circle cx="285.7143" cy="30.112" fill="#434bda" r="10" /><circle cx="314.2857" cy="30.4437" fill="#3d69db" r="10" /><circle cx="342.8571" cy="32.6682" fill="#4170d8" r="10" /><circle cx="371.4286" cy="36.3448" fill="#3e50d3" r="10" /><circle cx="26.6667" cy="86.8362" fill="#589228" r="10" /><circle cx="53.3333" cy="89.2137" fill="#2f9d2c" r="10" /><circle cx="80.0" cy="89.9981" fill="#418e22" r="10" /><circle cx="106.6667" cy="89.0537" fill="#2d9524" r="10" /><circle cx="133.3333" cy="86.5438" fill="#319d2c" r="10" /><circle cx="160.0" cy="82.9025" fill="#21a426" r="10" /><circle cx="186.6667" cy="78.7593" fill="#2b9f32" r="10" /><circle cx="213.3333" cy="74.8306" fill="#21942c" r="10" /><circle cx="240.0" cy="71.7958" fill="#30a222" r="10" /><circle cx="266.6667" cy="70.1795" fill="#3e9023" r="10" /><circle cx="293.3333" cy="70.2613" fill="#288e27" r="10" /><circle cx="320.0" cy="72.027" fill="#499729" r="10" /><circle cx="346.6667" cy="75.1713" fill="#599f20" r="10" /><circle cx="373.3333" cy="79.1505" fill="#309f24" r="10" /><circle cx="30.7692" cy="129.2175" fill="#ad54b2" r="10" /><circle cx="61.5385" cy="129.9638" fill="#9759ac" r="10" /><circle cx="92.3077" cy="128.4276" fill="#7d4dad" r="10" /><circle cx="123.0769" cy="124.9607" fill="#9f5ab8" r="10" /><circle cx="153.8462" cy="120.3574" fill="#8058b0" r="10" /><circle cx="184.6154" cy="115.6722" fill="#9b59bd" r="10" /><circle cx="215.3846" cy="111.9784" fill="#8f4da7" r="10" /><circle cx="246.1538" cy="110.1223" fill="#af5eba" r="10" /><circle cx="276.9231" cy="110.5291" fill="#7a51ab" r="10" /><circle cx="307.6923" cy="113.1055" fill="#9363bb" r="10" /><circle cx="338.4615" cy="117.2614" fill="#a454a6" r="10" /><circle cx="369.2308" cy="122.0446" fill="#8455ae" r="10" /><circle cx="26.6667" cy="169.1137" fill="#c23234" r="10" /><circle cx="53.3333" cy="166.6518" fill="#d3523f" r="10" /><circle cx="80.0" cy="163.0397" fill="#c9483a" r="10" /><circle cx="106.6667" cy="158.902" fill="#d34536" r="10" /><circle cx="133.3333" cy="154.9541" fill="#c8304f" r="10" /><circle cx="160.0" cy="151.8788" fill="#c43443" r="10" /><circle cx="186.6667" cy="150.2076" fill="#c94e2d" r="10" /><circle cx="213.3333" cy="150.2297" fill="#c35738" r="10" /><circle cx="240.0" cy="151.9411" fill="#ce2f44" r="10" /><circle cx="266.6667" cy="155.046" fill="#be2b32" r="10" /><circle cx="293.3333" cy="159.0075" fill="#c42833" r="10" /><circle cx="320.0" cy="163.1406" fill="#cd3545" r="10" /><circle cx="346.6667" cy="166.7306" fill="#cc4032" r="10" /><circle cx="373.3333" cy="169.1569" fill="#c64133" r="10" /></svg>