<?xml version="1.0" encoding="utf-8" ?>
<svg baseProfile="full" height="100%" version="1.1" width="100%" xmlns="http://www.w3.org/2000/svg" xmlns:ev="http://www.w3.org/2001/xml-events" xmlns:xlink="http://www.w3.org/1999/xlink"><defs /><circle cx="16.666666666666668" cy="23.279119145305728" fill="#3c7eda" r="5" /><circle cx="33.333333333333336" cy="24.7270854120607" fill="#478ae4" r="5" /><circle cx="50.0" cy="24.908432960101067" fill="#486ae0" r="5" /><circle cx="66.66666666666667" cy="23.774569860380048" fill="#455cdb" r="5" /><circle cx="83.33333333333334" cy="21.629313814795335" fill="#3983ce" r="5" /><circle cx="100.0" cy="19.047484448319345" fill="#4b81e2" r="5" /><circle cx="116.66666666666667" cy="16.720880854694272" fill="#335dcc" r="5" /><circle cx="133.33333333333334" cy="15.272914587939301" fill="#474ad0" r="5" /><circle cx="150.0" cy="15.091567039898935" fill="#375cd6" r="5" /><circle cx="166.66666666666669" cy="16.225430139619956" fill="#3f5bde" r="5" /><circle cx="183.33333333333334" cy="18.37068618520466" fill="#4753e2" r="5" /><circle cx="15.384615384615385" cy="42.89162215163673" fill="#209d2f" r="5" /><circle cx="30.76923076923077" cy="44.45602604599287" fill="#429d2e" r="5" /><circle cx="46.15384615384615" cy="44.99960807414734" fill="#499220" r="5" /><circle cx="61.53846153846154" cy="44.39784014432353" fill="#53a021" r="5" /><circle cx="76.92307692307692" cy="42.78858003715437" fill="#309d21" r="5" /><circle cx="92.3076923076923" cy="40.54048984950564" fill="#469020" r="5" /><circle cx="107.6923076923077" cy="38.168579950943965" fill="#49a124" r="5" /><circle cx="123.07692307692308" cy="36.21622631461684" fill="#39932c" r="5" /><circle cx="138.46153846153845" cy="35.13068963019488" fill="#289232" r="5" /><circle cx="153.84615384615384" cy="35.160653269943964" fill="#27a432" r="5" /><circle cx="169.23076923076923" cy="36.29925292509856" fill="#489522" r="5" /><circle cx="184.6153846153846" cy="38.285649136276106" fill="#27a12c" r="5" /><circle cx="14.285714285714286" cy="64.46703125956019" fill="#9b54b4" r="5" /><circle cx="28.571428571428573" cy="64.999266737258" fill="#a965bd" r="5" /><circle cx="42.85714285714286" cy="64.54133612565893" fill="#8c65bd" r="5" /><circle cx="57.142857142857146" cy="63.183938198540574" fill="#8459b1" r="5" /><circle cx="71.42857142857143" cy="61.195922262761805" fill="#935db4" r="5" /><circle cx="85.71428571428572" cy="58.97103925581903" fill="#b157b9" r="5" /><circle cx="100.0" cy="56.94995454363668" fill="#9e55b5" r="5" /><circle cx="114.28571428571429" cy="55.53296874043981" fill="#a357aa" r="5" /><circle cx="128.57142857142858" cy="55.000733262742" fill="#a34fae" r="5" /><circle cx="142.85714285714286" cy="55.45866387434107" fill="#965aad" r="5" /><circle cx="157.14285714285714" cy="56.816061801459426" fill="#744da6" r="5" /><circle cx="171.42857142857144" cy="58.8040777372382" fill="#9460b2" r="5" /><circle cx="185.71428571428572" cy="61.02896074418097" fill="#b65bbe" r="5" /><circle cx="13.333333333333334" cy="84.87698290927594" fill="#cf4a37" r="5" /><circle cx="26.666666666666668" cy="84.90368629568438" fill="#ca5f31" r="5" /><circle cx="40.0" cy="84.08249777297752" fill="#ca6639" r="5" /><circle cx="53.333333333333336" cy="82.55540829699493" fill="#c25627" r="5" /><circle cx="66.66666666666667" cy="80.58646551130634" fill="#cd3f33" r="5" /><circle cx="80.0" cy="78.51611751084097" fill="#d73b44" r="5" /><circle cx="93.33333333333334" cy="76.70234627340041" fill="#c13337" r="5" /><circle cx="106.66666666666667" cy="75.45876932353252" fill="#c15b30" r="5" /><circle cx="120.0" cy="75.0004124134114" fill="#ce3c32" r="5" /><circle cx="133.33333333333334" cy="75.40652961683877" fill="#cc4536" r="5" /><circle cx="146.66666666666669" cy="76.60689957988309" fill="#c7394f" r="5" /><circle cx="160.0" cy="78.39396743091521" fill="#c76334" r="5" /><circle cx="173.33333333333334" cy="80.45873290348995" fill="#d33852" r="5" /><circle cx="186.66666666666669" cy="82.44417928959368" fill="#d2673b" r="5" /></svg>